<mxfile host="app.diagrams.net" modified="2022-11-16T07:35:05.073Z" agent="5.0 (Windows NT 10.0; Win64; x64) AppleWebKit/537.36 (KHTML, like Gecko) Chrome/107.0.0.0 Safari/537.36" etag="nuX5I-R3oPFJzORciUmn" version="20.5.3" type="github">
  <diagram id="qJ5iFYqfq-WhB3UF0bhn" name="페이지-1">
    <mxGraphModel dx="1422" dy="762" grid="1" gridSize="10" guides="1" tooltips="1" connect="1" arrows="1" fold="1" page="1" pageScale="1" pageWidth="827" pageHeight="1169" math="0" shadow="0">
      <root>
        <mxCell id="0" />
        <mxCell id="1" parent="0" />
        <mxCell id="X7jV2OKJYhbMTRiO_9Sh-1" value="회원" style="rounded=0;whiteSpace=wrap;html=1;" vertex="1" parent="1">
          <mxGeometry x="190" y="270" width="80" height="40" as="geometry" />
        </mxCell>
        <mxCell id="X7jV2OKJYhbMTRiO_9Sh-2" value="회원번호" style="ellipse;whiteSpace=wrap;html=1;fontStyle=4" vertex="1" parent="1">
          <mxGeometry x="120" y="220" width="70" height="40" as="geometry" />
        </mxCell>
        <mxCell id="X7jV2OKJYhbMTRiO_9Sh-3" value="아이디" style="ellipse;whiteSpace=wrap;html=1;fontStyle=0" vertex="1" parent="1">
          <mxGeometry x="100" y="270" width="70" height="40" as="geometry" />
        </mxCell>
        <mxCell id="X7jV2OKJYhbMTRiO_9Sh-4" value="비밀번호" style="ellipse;whiteSpace=wrap;html=1;fontStyle=0" vertex="1" parent="1">
          <mxGeometry x="120" y="320" width="70" height="40" as="geometry" />
        </mxCell>
        <mxCell id="X7jV2OKJYhbMTRiO_9Sh-5" value="휴대폰" style="ellipse;whiteSpace=wrap;html=1;fontStyle=0" vertex="1" parent="1">
          <mxGeometry x="195" y="340" width="70" height="40" as="geometry" />
        </mxCell>
        <mxCell id="X7jV2OKJYhbMTRiO_9Sh-6" value="이메일" style="ellipse;whiteSpace=wrap;html=1;fontStyle=0" vertex="1" parent="1">
          <mxGeometry x="270" y="320" width="70" height="40" as="geometry" />
        </mxCell>
        <mxCell id="X7jV2OKJYhbMTRiO_9Sh-7" value="성별" style="ellipse;whiteSpace=wrap;html=1;fontStyle=0" vertex="1" parent="1">
          <mxGeometry x="195" y="200" width="70" height="40" as="geometry" />
        </mxCell>
        <mxCell id="X7jV2OKJYhbMTRiO_9Sh-14" value="" style="endArrow=none;html=1;rounded=0;" edge="1" parent="1" source="X7jV2OKJYhbMTRiO_9Sh-7" target="X7jV2OKJYhbMTRiO_9Sh-1">
          <mxGeometry width="50" height="50" relative="1" as="geometry">
            <mxPoint x="400" y="280" as="sourcePoint" />
            <mxPoint x="450" y="230" as="targetPoint" />
          </mxGeometry>
        </mxCell>
        <mxCell id="X7jV2OKJYhbMTRiO_9Sh-15" value="" style="endArrow=none;html=1;rounded=0;" edge="1" parent="1" source="X7jV2OKJYhbMTRiO_9Sh-1" target="X7jV2OKJYhbMTRiO_9Sh-2">
          <mxGeometry width="50" height="50" relative="1" as="geometry">
            <mxPoint x="240" y="250" as="sourcePoint" />
            <mxPoint x="240" y="280" as="targetPoint" />
          </mxGeometry>
        </mxCell>
        <mxCell id="X7jV2OKJYhbMTRiO_9Sh-16" value="" style="endArrow=none;html=1;rounded=0;" edge="1" parent="1" source="X7jV2OKJYhbMTRiO_9Sh-3" target="X7jV2OKJYhbMTRiO_9Sh-1">
          <mxGeometry width="50" height="50" relative="1" as="geometry">
            <mxPoint x="210" y="280" as="sourcePoint" />
            <mxPoint x="187.77769807096024" y="265.18513204730675" as="targetPoint" />
          </mxGeometry>
        </mxCell>
        <mxCell id="X7jV2OKJYhbMTRiO_9Sh-17" value="" style="endArrow=none;html=1;rounded=0;" edge="1" parent="1" source="X7jV2OKJYhbMTRiO_9Sh-4" target="X7jV2OKJYhbMTRiO_9Sh-1">
          <mxGeometry width="50" height="50" relative="1" as="geometry">
            <mxPoint x="180" y="300" as="sourcePoint" />
            <mxPoint x="200" y="300" as="targetPoint" />
          </mxGeometry>
        </mxCell>
        <mxCell id="X7jV2OKJYhbMTRiO_9Sh-18" value="" style="endArrow=none;html=1;rounded=0;" edge="1" parent="1" source="X7jV2OKJYhbMTRiO_9Sh-5" target="X7jV2OKJYhbMTRiO_9Sh-1">
          <mxGeometry width="50" height="50" relative="1" as="geometry">
            <mxPoint x="187.77769807096024" y="334.814867952693" as="sourcePoint" />
            <mxPoint x="210" y="320" as="targetPoint" />
          </mxGeometry>
        </mxCell>
        <mxCell id="X7jV2OKJYhbMTRiO_9Sh-19" value="" style="endArrow=none;html=1;rounded=0;" edge="1" parent="1" source="X7jV2OKJYhbMTRiO_9Sh-6" target="X7jV2OKJYhbMTRiO_9Sh-1">
          <mxGeometry width="50" height="50" relative="1" as="geometry">
            <mxPoint x="240" y="350" as="sourcePoint" />
            <mxPoint x="240" y="320" as="targetPoint" />
          </mxGeometry>
        </mxCell>
        <mxCell id="X7jV2OKJYhbMTRiO_9Sh-20" value="이용권" style="rounded=0;whiteSpace=wrap;html=1;" vertex="1" parent="1">
          <mxGeometry x="460" y="270" width="80" height="40" as="geometry" />
        </mxCell>
        <mxCell id="X7jV2OKJYhbMTRiO_9Sh-21" value="이용시간" style="ellipse;whiteSpace=wrap;html=1;fontStyle=0" vertex="1" parent="1">
          <mxGeometry x="550" y="270" width="70" height="40" as="geometry" />
        </mxCell>
        <mxCell id="X7jV2OKJYhbMTRiO_9Sh-22" value="" style="endArrow=none;html=1;rounded=0;" edge="1" parent="1" source="X7jV2OKJYhbMTRiO_9Sh-20" target="X7jV2OKJYhbMTRiO_9Sh-1">
          <mxGeometry width="50" height="50" relative="1" as="geometry">
            <mxPoint x="390" y="420" as="sourcePoint" />
            <mxPoint x="440" y="370" as="targetPoint" />
          </mxGeometry>
        </mxCell>
        <mxCell id="X7jV2OKJYhbMTRiO_9Sh-23" value="이용날짜" style="ellipse;whiteSpace=wrap;html=1;fontStyle=0" vertex="1" parent="1">
          <mxGeometry x="465" y="210" width="70" height="40" as="geometry" />
        </mxCell>
        <mxCell id="X7jV2OKJYhbMTRiO_9Sh-24" value="키넘버" style="ellipse;whiteSpace=wrap;html=1;fontStyle=0" vertex="1" parent="1">
          <mxGeometry x="465" y="330" width="70" height="40" as="geometry" />
        </mxCell>
        <mxCell id="X7jV2OKJYhbMTRiO_9Sh-26" value="" style="endArrow=none;html=1;rounded=0;" edge="1" parent="1" source="X7jV2OKJYhbMTRiO_9Sh-20" target="X7jV2OKJYhbMTRiO_9Sh-23">
          <mxGeometry width="50" height="50" relative="1" as="geometry">
            <mxPoint x="390" y="420" as="sourcePoint" />
            <mxPoint x="440" y="370" as="targetPoint" />
          </mxGeometry>
        </mxCell>
        <mxCell id="X7jV2OKJYhbMTRiO_9Sh-27" value="" style="endArrow=none;html=1;rounded=0;" edge="1" parent="1" source="X7jV2OKJYhbMTRiO_9Sh-21" target="X7jV2OKJYhbMTRiO_9Sh-20">
          <mxGeometry width="50" height="50" relative="1" as="geometry">
            <mxPoint x="510" y="280" as="sourcePoint" />
            <mxPoint x="510" y="260" as="targetPoint" />
          </mxGeometry>
        </mxCell>
        <mxCell id="X7jV2OKJYhbMTRiO_9Sh-28" value="" style="endArrow=none;html=1;rounded=0;" edge="1" parent="1" source="X7jV2OKJYhbMTRiO_9Sh-24" target="X7jV2OKJYhbMTRiO_9Sh-20">
          <mxGeometry width="50" height="50" relative="1" as="geometry">
            <mxPoint x="520" y="290" as="sourcePoint" />
            <mxPoint x="520" y="270" as="targetPoint" />
          </mxGeometry>
        </mxCell>
      </root>
    </mxGraphModel>
  </diagram>
</mxfile>
